<svg width="512" height="516" viewBox="0 0 512 516" fill="none" xmlns="http://www.w3.org/2000/svg">
<g clip-path="url(#clip0_11_2)">
<rect width="512" height="516" rx="256" fill="#84A88F"/>
<path d="M106.47 -58C106.47 -58 141.84 -7.29722 146.879 72.8744C152.112 156.119 149.053 160.964 128.107 198.495C105.859 238.36 84.4484 253.874 50.2785 284.15C21.8364 309.35 -25.962 312.511 -25.962 312.511" stroke="#4A8F43" stroke-width="15" stroke-linecap="round" stroke-dasharray="31 31"/>
<path d="M510.351 424.979L406.663 372.971C368.157 353.657 321.285 369.215 301.971 407.721V407.721C282.657 446.227 298.215 493.099 336.721 512.413L440.409 564.421" stroke="#C3FFD0" stroke-width="19" stroke-linecap="round" stroke-linejoin="round"/>
<path fill-rule="evenodd" clip-rule="evenodd" d="M290.981 111C274.62 111.036 258.94 111.057 245.168 111.055C221.114 111.05 195 136.778 195 160.832L195 284.113H172.5C139.087 284.113 112 311.2 112 344.613C112 378.026 139.087 405.113 172.5 405.113H177.25C213.287 405.113 242.5 375.9 242.5 339.863V176.613C242.5 169.433 248.32 163.613 255.5 163.613H292.5C324.533 163.613 350.5 189.581 350.5 221.613C350.5 253.646 324.533 279.613 292.5 279.613H290.071C267.112 279.613 248.5 298.225 248.5 321.185C248.5 325.011 251.602 328.113 255.429 328.113H291.505C351.425 328.113 400 279.538 400 219.618C400 159.499 351.1 110.868 290.981 111ZM195 327.113H177.5C167.283 327.113 159 335.396 159 345.613V346.113C159 356.054 167.059 364.113 177 364.113C186.941 364.113 195 356.054 195 346.113V327.113Z" fill="#30562F"/>
</g>
<defs>
<clipPath id="clip0_11_2">
<rect width="512" height="516" rx="256" fill="white"/>
</clipPath>
</defs>
</svg>
